<svg preserveAspectRatio="none" width="100%" height="100%" overflow="visible" style="display: block;" viewBox="0 0 2711.28 4885.59" fill="none" xmlns="http://www.w3.org/2000/svg">
<g id="Group 1">
<path id="Vector" d="M1321.21 3212.62C1164.21 3708 1594.25 4165 1377 4552.25C1159.79 4939.46 733.081 4882.67 733.081 4882.67C106.623 4882.67 -222.752 4359.42 169.956 3544.04C492.748 2873.87 1321.71 2737.75 1789.83 2339.58H2580.5C2282.54 2827.25 1469.08 2745.96 1321.21 3212.62Z" fill="var(--fill-0, #008147)"/>
<path id="Vector_2" d="M2629.42 2242.79C2615.25 2277.37 2598.87 2309.58 2580.5 2339.58H1789.83C1918.75 2229.92 2020.29 2100.38 2076.37 1934.38C2254.17 1408.17 2015.42 1021.79 1889.83 864.584C1764.25 707.376 1708.41 749.709 1561.91 686.917C1415.37 624.084 1335.16 271.75 1624.71 86.8748C1914.25 -98.0422 2224.71 34.5418 2238.66 275.25C2252.62 515.958 2081.71 575.25 2298 847.375C2514.29 1119.46 2873.62 1646.25 2629.42 2242.79Z" fill="var(--fill-0, #008147)"/>
</g>
</svg>
