<svg preserveAspectRatio="none" width="100%" height="100%" overflow="visible" style="display: block;" viewBox="0 0 1598.02 370.5" fill="none" xmlns="http://www.w3.org/2000/svg">
<g id="Group">
<path id="Vector" d="M1455.19 368.55L1382.06 0H1280.66L1207.54 368.55L1116.86 0H1013.51L922.837 368.55L849.712 0H748.312L675.187 368.55L584.513 0H481.163L390.487 368.55L317.363 0H215.963L142.838 368.55L52.1625 0H0L91.1625 370.5H193.538L266.662 2.4375L339.788 370.5H442.163L532.837 1.95L623.512 370.5H725.887L799.012 2.4375L872.137 370.5H974.512L1065.19 1.95L1155.86 370.5H1258.24L1331.36 2.4375L1404.49 370.5H1506.86L1598.02 0H1545.86L1455.19 368.55Z" fill="var(--fill-0, #008147)"/>
</g>
</svg>
